<svg width="41" height="41" viewBox="0 0 41 41" fill="none" xmlns="http://www.w3.org/2000/svg">
<circle cx="20.5" cy="20.5" r="20.5" fill="url(#paint0_linear_1_20)"/>
<path d="M11 18.5C11 17.3872 11.3376 16.3006 11.9681 15.3837C12.5987 14.4667 13.4925 13.7627 14.5316 13.3644C15.5707 12.9661 16.7062 12.8924 17.788 13.153C18.8699 13.4136 19.8472 13.9963 20.591 14.824C20.6434 14.88 20.7067 14.9247 20.7771 14.9552C20.8474 14.9857 20.9233 15.0015 21 15.0015C21.0767 15.0015 21.1526 14.9857 21.2229 14.9552C21.2933 14.9247 21.3566 14.88 21.409 14.824C22.1504 13.9909 23.128 13.4034 24.2116 13.1396C25.2952 12.8758 26.4335 12.9483 27.4749 13.3475C28.5163 13.7466 29.4114 14.4535 30.0411 15.3739C30.6708 16.2944 31.0053 17.3848 31 18.5C31 20.79 29.5 22.5 28 24L22.508 29.313C22.3217 29.527 22.0919 29.6989 21.834 29.8173C21.5762 29.9357 21.296 29.9978 21.0123 29.9996C20.7285 30.0014 20.4476 29.9428 20.1883 29.8277C19.9289 29.7126 19.697 29.5436 19.508 29.332L14 24C12.5 22.5 11 20.8 11 18.5Z" stroke="#171A21" stroke-width="2" stroke-linecap="round" stroke-linejoin="round"/>
<defs>
<linearGradient id="paint0_linear_1_20" x1="20.5" y1="0" x2="20.5" y2="41" gradientUnits="userSpaceOnUse">
<stop stop-color="#934FD7"/>
<stop offset="1" stop-color="#BF12C4"/>
</linearGradient>
</defs>
</svg>
