<svg width="20" height="25" viewBox="0 0 20 25" fill="none" xmlns="http://www.w3.org/2000/svg">
<path d="M19 10.2001C19 15.9421 12.7686 21.9222 10.6761 23.7691C10.4812 23.919 10.2439 24 10 24C9.7561 24 9.51881 23.919 9.32388 23.7691C7.23138 21.9222 1 15.9421 1 10.2001C1 7.76009 1.94821 5.42001 3.63604 3.69465C5.32387 1.9693 7.61305 1 10 1C12.3869 1 14.6761 1.9693 16.364 3.69465C18.0518 5.42001 19 7.76009 19 10.2001Z" stroke="#934FD7" stroke-width="2" stroke-linecap="round" stroke-linejoin="round"/>
<path d="M10 13.6502C11.864 13.6502 13.375 12.1055 13.375 10.2001C13.375 8.29471 11.864 6.75007 10 6.75007C8.13604 6.75007 6.625 8.29471 6.625 10.2001C6.625 12.1055 8.13604 13.6502 10 13.6502Z" stroke="#934FD7" stroke-width="2" stroke-linecap="round" stroke-linejoin="round"/>
</svg>
